<svg xmlns="http://www.w3.org/2000/svg" width="15.705" height="15.705" viewBox="0 0 15.705 15.705">
  <g id="Group_5890" data-name="Group 5890" transform="translate(-278.391 -361.156)">
    <path id="info" d="M.614,15.705a.614.614,0,0,1-.569-.843l1.393-3.446A6.784,6.784,0,0,1,0,7.239,6.919,6.919,0,0,1,2.32,2.1,8.155,8.155,0,0,1,7.853,0a8.155,8.155,0,0,1,5.533,2.1,6.919,6.919,0,0,1,2.32,5.138,6.812,6.812,0,0,1-1.245,3.914.613.613,0,1,1-1.006-.7,5.591,5.591,0,0,0,1.024-3.212c0-3.315-2.972-6.012-6.626-6.012s-6.626,2.7-6.626,6.012a5.608,5.608,0,0,0,1.382,3.674.613.613,0,0,1,.1.628l-.962,2.38,2.8-1.235a.614.614,0,0,1,.488,0,7.238,7.238,0,0,0,6.044-.193.613.613,0,0,1,.556,1.094,8.471,8.471,0,0,1-6.83.33L.861,15.653A.613.613,0,0,1,.614,15.705ZM8.466,9.969V6.656a.613.613,0,1,0-1.227,0V9.969a.613.613,0,0,0,1.227,0ZM7.853,3.926a.613.613,0,0,0-.613.613h0a.613.613,0,0,0,1.227,0h0A.613.613,0,0,0,7.853,3.926Z" transform="translate(278.391 361.156)" fill="#303030"/>
  </g>
</svg>
