<svg xmlns="http://www.w3.org/2000/svg" width="15.852" height="15.604" viewBox="0 0 15.852 15.604">
  <g id="Artboard_92" data-name="Artboard 92" transform="translate(-9.377 -135.626)">
    <path id="Path_4884" data-name="Path 4884" d="M15.241,428.52a5.591,5.591,0,0,1,3.333,1.122c.1.076.157.08.252-.013a3.515,3.515,0,0,1,2.519-1.034,3.691,3.691,0,0,1,.46,7.357,3.563,3.563,0,0,1-3.018-1.045.459.459,0,0,0-.353-.144q-4.22.008-8.442.008c-.34,0-.475-.132-.464-.466a5.994,5.994,0,0,1,1.243-3.613,5.482,5.482,0,0,1,3.68-2.113A6.263,6.263,0,0,1,15.241,428.52Zm-1.319,5.551c1.048.01,2.538-.013,4.028-.021.109,0,.193.012.117-.151a3.6,3.6,0,0,1,.118-3.449c.078-.14.049-.2-.067-.28a4.855,4.855,0,0,0-2.9-.933,4.768,4.768,0,0,0-3.96,1.973,4.969,4.969,0,0,0-.985,2.573c-.027.287-.025.288.268.288Zm7.448-4.765a2.982,2.982,0,1,0,2.989,2.978A2.954,2.954,0,0,0,21.371,429.307Z" transform="translate(0 -284.899)" fill="#303030" stroke="#303030" stroke-width="0.3"/>
    <path id="Path_4885" data-name="Path 4885" d="M95.859,139.342a3.545,3.545,0,1,1-3.515-3.566A3.526,3.526,0,0,1,95.859,139.342Zm-6.373-.022a2.838,2.838,0,1,0,2.841-2.838A2.832,2.832,0,0,0,89.486,139.32Z" transform="translate(-77.119)" fill="#303030" stroke="#303030" stroke-width="0.3"/>
    <path id="Path_4886" data-name="Path 4886" d="M390.83,506.772c.134,0,.268,0,.4,0a.347.347,0,1,1,.015.693c-.274.01-.548.009-.822,0-.134,0-.181.042-.177.176.007.263.006.527,0,.79a.365.365,0,0,1-.227.359.328.328,0,0,1-.36-.064.406.406,0,0,1-.126-.336c0-.253-.006-.505,0-.758,0-.127-.044-.17-.17-.167-.258.007-.516,0-.774,0a.352.352,0,1,1,0-.7c.242,0,.484,0,.726,0,.218,0,.218,0,.219-.226v-.726a.386.386,0,0,1,.184-.355.354.354,0,0,1,.528.329c.012.258.013.516,0,.774-.008.167.051.221.212.206.123-.012.247,0,.371,0Z" transform="translate(-368.515 -359.731)" fill="#303030" stroke="#303030" stroke-width="0.3"/>
  </g>
</svg>
