<svg xmlns="http://www.w3.org/2000/svg" width="29.015" height="27.249" viewBox="0 0 29.015 27.249">
  <g id="Group_6084" data-name="Group 6084" transform="translate(0 -13.269)">
    <g id="Group_5847" data-name="Group 5847" transform="translate(0 13.269)">
      <g id="Group_5846" data-name="Group 5846" transform="translate(0 0)">
        <path id="Path_2388" data-name="Path 2388" d="M27.451,31.05l-2.3-1.045-.659-1.065a8.852,8.852,0,0,0,4.126-7.487V17.082a.68.68,0,0,0-.366-.586l-5.916-3.148a.648.648,0,0,0-.632.007L15.971,16.5a.644.644,0,0,0-.333.586V21.54a8.887,8.887,0,0,0,.772,3.68h-4.8a3.348,3.348,0,0,0-2.642,1.3L6.355,29.952l-4.392,1.2A2.664,2.664,0,0,0,0,33.712v1.677a2.7,2.7,0,0,0,2.675,2.675h.319a3.35,3.35,0,0,0,6.455,0h9.782a3.35,3.35,0,0,0,6.455,0h.652a2.688,2.688,0,0,0,2.675-2.675V33.466A2.674,2.674,0,0,0,27.451,31.05ZM16.97,17.474l5.078-2.788,5.237,2.795v3.973a7.558,7.558,0,0,1-4.632,6.954h-.013L22,28.681l-.519-.233a7.546,7.546,0,0,1-4.512-6.914ZM6.222,39.162a2.016,2.016,0,1,1,2.016-2.016A2.015,2.015,0,0,1,6.222,39.162Zm16.238,0a2.016,2.016,0,1,1,2.016-2.016A2.015,2.015,0,0,1,22.46,39.162Zm5.231-3.78h-.007a1.358,1.358,0,0,1-1.344,1.344H25.78a3.349,3.349,0,0,0-6.641,0h-9.6a3.349,3.349,0,0,0-6.641,0H2.675a1.358,1.358,0,0,1-1.344-1.344V33.705a1.338,1.338,0,0,1,.985-1.278L6.921,31.17a.691.691,0,0,0,.359-.24l2.755-3.607a2,2,0,0,1,1.584-.779h5.55a9.012,9.012,0,0,0,3.78,3.128l.8.346a.673.673,0,0,0,.532,0l.9-.386c.047-.02.093-.04.133-.06l.819,1.311a.622.622,0,0,0,.286.253l2.489,1.125a1.341,1.341,0,0,1,.785,1.2v1.917Z" transform="translate(0 -13.269)" fill="#ef4c5b"/>
      </g>
    </g>
    <g id="Group_5849" data-name="Group 5849" transform="translate(18.962 19.74)">
      <g id="Group_5848" data-name="Group 5848" transform="translate(0 0)">
        <path id="Path_2389" data-name="Path 2389" d="M291.3,110.755a.673.673,0,0,0-.938-.106l-.007.007-3.114,2.535-1.131-1.324a.666.666,0,0,0-1.018.858l.007.007,1.551,1.817a.093.093,0,0,0,.02.027c.007.007.013.02.027.027l.027.027c.007.007.02.013.027.02a.145.145,0,0,0,.033.02.091.091,0,0,1,.027.02c.013.007.02.013.033.02a.051.051,0,0,0,.027.013.1.1,0,0,0,.04.013c.007.007.02.007.027.013s.027.007.04.013.02.007.027.007.027.007.04.007.02.007.027.007h.146c.013,0,.033-.007.047-.007a.024.024,0,0,0,.02-.007c.013,0,.027-.007.04-.007s.013-.007.02-.007.02-.007.033-.013.013-.007.027-.007.02-.007.027-.013.02-.007.027-.013.02-.007.027-.013a.05.05,0,0,1,.027-.013c.007,0,.013-.013.027-.013a.092.092,0,0,1,.027-.02c.007-.007.013-.007.02-.013l3.614-2.941A.673.673,0,0,0,291.3,110.755Z" transform="translate(-284.936 -110.505)" fill="#ef4c5b"/>
      </g>
    </g>
  </g>
</svg>
