<svg xmlns="http://www.w3.org/2000/svg" width="18.105" height="18.105" viewBox="0 0 18.105 18.105">
  <g id="positive-review" transform="translate(0.15 0.15)">
    <path id="Path_20" data-name="Path 20" d="M110.1,135.667h-4.173a.261.261,0,1,0,0,.522H110.1a.261.261,0,1,0,0-.522Z" transform="translate(-101.991 -130.949)" fill="#303030" stroke="#303030" stroke-width="0.3"/>
    <path id="Path_21" data-name="Path 21" d="M5.027,11.432a5.451,5.451,0,0,1-1.7-.617.261.261,0,0,0-.305.036,2.513,2.513,0,0,1-1.713.671A2.547,2.547,0,0,1,.956,11.5,3.052,3.052,0,0,0,2.07,10.06a.261.261,0,0,0-.055-.27,5.5,5.5,0,1,1,9.416-4.764.261.261,0,0,0,.513-.094A6.022,6.022,0,1,0,1.522,10.024,2.53,2.53,0,0,1,.163,11.339a.261.261,0,0,0,0,.484,3.045,3.045,0,0,0,3.066-.465,5.968,5.968,0,0,0,1.7.587.261.261,0,1,0,.094-.513Z" transform="translate(0)" fill="#303030" stroke="#303030" stroke-width="0.3"/>
    <path id="Path_22" data-name="Path 22" d="M105.927,195.667a.261.261,0,1,0,0,.522h2.949a.261.261,0,1,0,0-.522Z" transform="translate(-101.991 -188.863)" fill="#303030" stroke="#303030" stroke-width="0.3"/>
    <path id="Path_23" data-name="Path 23" d="M110.361,165.928a.261.261,0,0,0-.261-.261h-4.173a.261.261,0,1,0,0,.522H110.1A.261.261,0,0,0,110.361,165.928Z" transform="translate(-101.991 -159.906)" fill="#303030" stroke="#303030" stroke-width="0.3"/>
    <path id="Path_25" data-name="Path 25" d="M177.548,177a2.53,2.53,0,0,1-1.359-1.315,6.012,6.012,0,1,0-1.706,1.334,3.045,3.045,0,0,0,3.066.465.261.261,0,0,0,0-.483Zm-1.141.183a2.513,2.513,0,0,1-1.713-.671.261.261,0,0,0-.305-.036,5.507,5.507,0,1,1,1.306-1.025.261.261,0,0,0-.055.27,3.052,3.052,0,0,0,1.115,1.438A2.544,2.544,0,0,1,176.407,177.188Z" transform="translate(-159.906 -159.905)" fill="#303030" stroke="#303030" stroke-width="0.3"/>
  </g>
</svg>
