<svg xmlns="http://www.w3.org/2000/svg" width="19.914" height="16.202" viewBox="0 0 19.914 16.202">
  <g id="crane-truck" transform="translate(-6.879 -13.142)">
    <path id="Path_1024" data-name="Path 1024" d="M36.051,57.767h-4.81a.3.3,0,1,1,0-.595h4.81a.3.3,0,0,1,0,.595Z" transform="translate(-16.802 -30.804)" fill="#fff" stroke="#fff" stroke-width="0.3"/>
    <path id="Path_1025" data-name="Path 1025" d="M9.98,49.8H7.326a.3.3,0,0,1-.3-.3V46.131a.3.3,0,0,1,.3-.3H17.815a.3.3,0,0,1,0,.595H7.624v2.777H9.98a.3.3,0,1,1,0,.595Z" transform="translate(0 -22.838)" fill="#fff" stroke="#fff" stroke-width="0.3"/>
    <path id="Path_1026" data-name="Path 1026" d="M51.1,35.617H48.485a.3.3,0,1,1,0-.595h2.322l.016-3.293a.931.931,0,0,0-.929-.928l-.042,0-2.076-.3a.3.3,0,0,1-.244-.215l-1.02-3.653a.538.538,0,0,0-.517-.392h-3.4a.3.3,0,1,1,0-.595h3.4a1.135,1.135,0,0,1,1.091.829l.968,3.466,1.865.268a1.526,1.526,0,0,1,1.5,1.524L51.4,35.321A.3.3,0,0,1,51.1,35.617Z" transform="translate(-24.776 -8.655)" fill="#fff" stroke="#fff" stroke-width="0.3"/>
    <path id="Path_1027" data-name="Path 1027" d="M42.591,32.248a.3.3,0,0,1-.3-.3v-6a.3.3,0,0,1,.595,0v6A.3.3,0,0,1,42.591,32.248Z" transform="translate(-24.776 -8.658)" fill="#fff" stroke="#fff" stroke-width="0.3"/>
    <path id="Path_1028" data-name="Path 1028" d="M18.468,54.728A2.528,2.528,0,1,1,21,52.2,2.528,2.528,0,0,1,18.468,54.728Zm0-4.461A1.933,1.933,0,1,0,20.4,52.2a1.933,1.933,0,0,0-1.933-1.933Z" transform="translate(-6.261 -25.535)" fill="#fff" stroke="#fff" stroke-width="0.3"/>
    <path id="Path_1031" data-name="Path 1031" d="M49.641,54.728A2.528,2.528,0,1,1,52.169,52.2,2.528,2.528,0,0,1,49.641,54.728Zm0-4.461A1.933,1.933,0,1,0,51.574,52.2,1.933,1.933,0,0,0,49.641,50.267Z" transform="translate(-28.162 -25.535)" fill="#fff" stroke="#fff" stroke-width="0.3"/>
    <path id="Path_1035" data-name="Path 1035" d="M18.782,24.138a.3.3,0,0,1-.153-.043L14.7,21.74a.3.3,0,1,1,.3-.51l3.931,2.355a.3.3,0,0,1-.153.552Z" transform="translate(-5.278 -5.517)" fill="#fff" stroke="#fff" stroke-width="0.3"/>
    <path id="Path_1036" data-name="Path 1036" d="M20.412,19.914a.3.3,0,0,1-.153-.042l-3.254-1.948a.3.3,0,1,1,.305-.51l3.254,1.948a.3.3,0,0,1-.153.553Z" transform="translate(-6.907 -2.841)" fill="#fff" stroke="#fff" stroke-width="0.3"/>
    <path id="Path_1037" data-name="Path 1037" d="M10.233,16.342a1.507,1.507,0,1,1,1.485-1.236A1.507,1.507,0,0,1,10.233,16.342Zm-.78-1.976a.913.913,0,1,0,1.252-.313A.913.913,0,0,0,9.453,14.366Z" transform="translate(-1.194)" fill="#fff" stroke="#fff" stroke-width="0.3"/>
    <path id="Path_1038" data-name="Path 1038" d="M9.841,25.56a1.168,1.168,0,0,1-.261-.03,1.12,1.12,0,0,1-.838-.838,1.136,1.136,0,0,1,.792-1.35l.011-1.79a.3.3,0,0,1,.595,0v1.774a.614.614,0,0,1-.443.589.535.535,0,0,0-.374.645.529.529,0,0,0,.39.391.535.535,0,0,0,.665-.52.3.3,0,0,1,.595,0,1.13,1.13,0,0,1-1.13,1.13Z" transform="translate(-1.182 -5.57)" fill="#fff" stroke="#fff" stroke-width="0.3"/>
    <path id="Path_1039" data-name="Path 1039" d="M29.965,31.031H28.1a.3.3,0,0,1-.3-.3V24.214a.3.3,0,0,1,.3-.3h1.868a.3.3,0,0,1,.3.3v6.519A.3.3,0,0,1,29.965,31.031Zm-1.57-.595h1.273V24.512H28.395Z" transform="translate(-14.593 -7.44)" fill="#fff" stroke="#fff" stroke-width="0.3"/>
  </g>
</svg>
