<svg xmlns="http://www.w3.org/2000/svg" width="16.3" height="15.604" viewBox="0 0 16.3 15.604">
  <g id="user" transform="translate(0.15 0.693)">
    <path id="Path_1235" data-name="Path 1235" d="M83.983,6.6a3.572,3.572,0,1,0-3.572-3.572A3.572,3.572,0,0,0,83.983,6.6Zm0-6.468a2.9,2.9,0,1,1-2.9,2.9A2.9,2.9,0,0,1,83.983.133Zm0,0" transform="translate(-78.235)" fill="#303030" stroke="#303030" stroke-width="0.3"/>
    <path id="Path_1236" data-name="Path 1236" d="M14.3,285.458a.336.336,0,0,0-.476,0l-.882.882-2.176,2.176A5.746,5.746,0,0,0,0,291.318a.339.339,0,0,0,.338.338H8.721l-.277.828a.333.333,0,0,0,.081.345.34.34,0,0,0,.24.1.4.4,0,0,0,.108-.017l2.4-.8s0,0,.007,0a.115.115,0,0,0,.03-.014.011.011,0,0,0,.007,0l.034-.02c.01-.007.02-.017.03-.024s.007,0,.007-.007.01-.007.013-.014l3.616-3.605.882-.882a.337.337,0,0,0,0-.477Zm-3.122,5.849-1.125-1.125,3.126-3.126,1.125,1.125ZM.689,290.976a5.07,5.07,0,0,1,9.576-1.963l-.933.932-.014.014s0,.007-.007.007a.458.458,0,0,0-.044.068.012.012,0,0,1,0,.007c0,.01-.01.02-.013.031s0,0,0,.007l-.3.9H.689Zm9.032-.169.828.828-1.243.416Zm5.058-3.105-1.125-1.125.4-.4,1.125,1.125Zm0,0" transform="translate(0 -278.166)" fill="#303030" stroke="#303030" stroke-width="0.3"/>
  </g>
</svg>
