<svg xmlns="http://www.w3.org/2000/svg" width="16.622" height="20.2" viewBox="0 0 16.622 20.2">
  <g id="surface1" transform="translate(121.987 186.102)">
    <path id="Path_1060" data-name="Path 1060" d="M1.187,15.778c0-.02.259-1.946,1.109-2.567a4.153,4.153,0,0,1,.711-.391v2.4a1.432,1.432,0,0,0-.918,1.443v3.068A.27.27,0,0,0,2.359,20H14.3a.27.27,0,0,0,.27-.271V16.659a1.439,1.439,0,0,0-.918-1.443V12.832a4.163,4.163,0,0,1,.69.38c.849.619,1.108,2.547,1.109,2.567l.526,3.97.541-.07L16,15.709c-.011-.088-.289-2.177-1.328-2.934a5.768,5.768,0,0,0-1.114-.576.272.272,0,0,0-.076-.042l-.226-.079c-.346-.134-.711-.26-1.059-.371l-.2-.07a.277.277,0,0,0-.065-.019c-.582-.18-1.092-.32-1.365-.391v-.607a3.144,3.144,0,0,0,1.318-2.557v-.48a.8.8,0,0,0,.29.056.833.833,0,0,0,.832-.832V6.058a.834.834,0,0,0-.332-.664,7.8,7.8,0,0,0,.1-1.387A3.625,3.625,0,0,0,9.373.053,9.194,9.194,0,0,0,8.322,0,8.225,8.225,0,0,0,7.114.08,3.6,3.6,0,0,0,3.886,4.01a7.864,7.864,0,0,0,.1,1.385.829.829,0,0,0-.332.664v.749a.834.834,0,0,0,.826.841H4.5a.82.82,0,0,0,.29-.056V8.07a3.144,3.144,0,0,0,1.3,2.541v.629a26.568,26.568,0,0,0-2.9.921H3.17a5.85,5.85,0,0,0-1.191.608C.939,13.525.661,15.613.65,15.7L.125,19.67l.542.071ZM12.462,6.806a.291.291,0,0,1-.581,0V6.732a1.292,1.292,0,0,0,.581-.647ZM7.2.609A7.636,7.636,0,0,1,8.322.541a8.06,8.06,0,0,1,.973.052A3.082,3.082,0,0,1,12.225,4.01a8.287,8.287,0,0,1-.057,1.111A9.416,9.416,0,0,0,4.5,5.092,8.245,8.245,0,0,1,4.435,4.01,3.077,3.077,0,0,1,7.2.609Zm-2.418,6.2a.291.291,0,1,1-.581,0V6.085a1.3,1.3,0,0,0,.581.646ZM4.606,5.635a9,9,0,0,1,7.443.018c-.15.475-.361.592-.52.639a3.2,3.2,0,0,1-1.4-.181,6.837,6.837,0,0,0-1.8-.316,6.834,6.834,0,0,0-1.805.316,2.951,2.951,0,0,1-1.4.181c-.146-.047-.363-.17-.513-.657Zm.722,2.427v-1.2H5.4A5.1,5.1,0,0,0,6.676,6.62a6.359,6.359,0,0,1,1.659-.3,6.352,6.352,0,0,1,1.658.3,5.1,5.1,0,0,0,1.272.242h.075v1.2A2.612,2.612,0,0,1,8.73,10.67H7.937A2.612,2.612,0,0,1,5.328,8.061Zm4.692,2.871v.415L8.331,13.514,6.622,11.348v-.427a3.12,3.12,0,0,0,1.314.29h.792a3.112,3.112,0,0,0,1.292-.279Zm-4.984,1.16c.53-.162.982-.284,1.215-.345l2.084,2.635L10.4,11.748c.236.063.7.18,1.235.351v3.153h-6.6ZM3.316,15.7a.27.27,0,0,0,.234-.269V12.6c.3-.117.628-.231.944-.333v3.261a.271.271,0,0,0,.271.271H11.9a.271.271,0,0,0,.27-.271V12.275l.944.33v2.821a.272.272,0,0,0,.235.269.86.86,0,0,1,.684.964v2.79H2.632V16.656a.862.862,0,0,1,.684-.962Zm0,0" transform="translate(-122 -186)" fill="#fff" stroke="#fff" stroke-width="0.2"/>
  </g>
</svg>
