<svg xmlns="http://www.w3.org/2000/svg" width="16.313" height="18.186" viewBox="0 0 16.313 18.186">
  <g id="file" transform="translate(0.05 0.05)">
    <path id="Path_11" data-name="Path 11" d="M74.82,68.046h5.334a.265.265,0,1,0,0-.53H74.82a.265.265,0,1,0,0,.53Z" transform="translate(-72.858 -65.131)" fill="#909090" stroke="#303030" stroke-width="0.1"/>
    <path id="Path_12" data-name="Path 12" d="M74.82,117.383h5.334a.265.265,0,1,0,0-.53H74.82a.265.265,0,1,0,0,.53Z" transform="translate(-72.858 -112.725)" fill="#909090" stroke="#303030" stroke-width="0.1"/>
    <path id="Path_13" data-name="Path 13" d="M85.5,214.768a.265.265,0,0,0-.265-.265H74.82a.265.265,0,1,0,0,.53H85.237A.265.265,0,0,0,85.5,214.768Z" transform="translate(-72.858 -206.926)" fill="#909090" stroke="#303030" stroke-width="0.1"/>
    <path id="Path_14" data-name="Path 14" d="M83.075,282.4a.265.265,0,0,0-.265-.265H74.82a.265.265,0,1,0,0,.53h7.99A.265.265,0,0,0,83.075,282.4Z" transform="translate(-72.858 -272.168)" fill="#909090" stroke="#303030" stroke-width="0.1"/>
    <path id="Path_15" data-name="Path 15" d="M74.82,349.766a.265.265,0,0,0,0,.53h4.443a.265.265,0,0,0,0-.53Z" transform="translate(-72.858 -337.411)" fill="#909090" stroke="#303030" stroke-width="0.1"/>
    <path id="Path_16" data-name="Path 16" d="M42.515,12.813h0L39.152,9.793a.649.649,0,0,0-1.083.483v1.065c-4.877.394-5.989,4.443-6.24,6.189q0,.013,0,.026H27.718a.671.671,0,0,1-.67-.67V1.2a.671.671,0,0,1,.67-.67H36.2V3.682a.973.973,0,0,0,.972.972h3.153v5.579a.265.265,0,1,0,.53,0V4.389a.265.265,0,0,0-.078-.187L36.657.078A.265.265,0,0,0,36.47,0H27.718a1.2,1.2,0,0,0-1.2,1.2V16.886a1.2,1.2,0,0,0,1.2,1.2H39.659a1.2,1.2,0,0,0,1.2-1.2v-.547a.265.265,0,1,0-.53,0v.547a.671.671,0,0,1-.67.67H32.97A6.273,6.273,0,0,1,37.7,15.4h.365v.918a.649.649,0,0,0,1.083.483l3.364-3.021a.65.65,0,0,0,0-.966ZM36.735,3.682V.9l3.22,3.22H37.176A.442.442,0,0,1,36.735,3.682Zm5.426,9.7L38.8,16.407a.12.12,0,0,1-.2-.089V15.135a.265.265,0,0,0-.265-.265H37.7a6.8,6.8,0,0,0-5.326,2.569A7.584,7.584,0,0,1,33.7,14.16a5.879,5.879,0,0,1,4.649-2.307.265.265,0,0,0,.251-.265V10.276a.114.114,0,0,1,.071-.109.127.127,0,0,1,.051-.011.114.114,0,0,1,.078.032l3.363,3.021a.12.12,0,0,1,0,.178Z" transform="translate(-26.518 0)" fill="#909090" stroke="#303030" stroke-width="0.1"/>
  </g>
</svg>
