<svg xmlns="http://www.w3.org/2000/svg" width="16.005" height="18.265" viewBox="0 0 16.005 18.265">
  <g id="headphones" transform="translate(0.15 0.15)">
    <g id="Group_41" data-name="Group 41" transform="translate(0 0)">
      <path id="Path_50" data-name="Path 50" d="M40.478,6.145a6.145,6.145,0,0,0-12.291,0A1.854,1.854,0,0,0,26.48,8.16v3.209a1.906,1.906,0,0,0,2.049,2.048h.99a.341.341,0,0,0,.341-.341V6.466a.341.341,0,0,0-.341-.341H28.87a5.463,5.463,0,0,1,10.925,0h-.649a.341.341,0,0,0-.341.341v6.6a.341.341,0,0,0,.341.341H39.8c-.1,2.346-1.222,2.9-3.472,2.994v-.229a.683.683,0,0,0-.683-.683H33.493a.683.683,0,0,0-.683.683v1.11a.683.683,0,0,0,.683.683h2.154a.683.683,0,0,0,.683-.683v-.2c2.165-.1,4.036-.546,4.148-3.7a1.854,1.854,0,0,0,1.707-2.014V8.163A1.851,1.851,0,0,0,40.478,6.145Zm-11.3.638v5.941h-.666a1.24,1.24,0,0,1-1.366-1.366V8.15a1.241,1.241,0,0,1,1.366-1.366Zm6.47,9.983v.519H33.493v-1.11h2.154Zm5.855-5.4a1.241,1.241,0,0,1-1.366,1.366h-.649V6.808h.666a1.24,1.24,0,0,1,1.366,1.366Z" transform="translate(-26.48)" fill="#303030" stroke="#303030" stroke-width="0.3"/>
    </g>
  </g>
</svg>
