<svg xmlns="http://www.w3.org/2000/svg" width="19.127" height="19.129" viewBox="0 0 19.127 19.129">
  <path id="home" d="M19.113,8.32h0l-7.8-7.8a1.761,1.761,0,0,0-2.491,0l-7.8,7.8-.008.008a1.76,1.76,0,0,0,1.172,3l.054,0h.311v5.742a2.063,2.063,0,0,0,2.061,2.061H7.662a.56.56,0,0,0,.56-.56v-4.5a.941.941,0,0,1,.94-.94h1.8a.941.941,0,0,1,.94.94v4.5a.56.56,0,0,0,.56.56h3.053a2.063,2.063,0,0,0,2.061-2.061V11.325h.288A1.761,1.761,0,0,0,19.113,8.32Zm-.794,1.7a.636.636,0,0,1-.453.188h-.849a.56.56,0,0,0-.56.56v6.3a.941.941,0,0,1-.94.94H13.025V14.066A2.063,2.063,0,0,0,10.964,12h-1.8A2.064,2.064,0,0,0,7.1,14.066v3.942H4.609a.941.941,0,0,1-.94-.94v-6.3a.56.56,0,0,0-.56-.56h-.86a.639.639,0,0,1-.441-1.092h0l7.8-7.8a.64.64,0,0,1,.905,0l7.8,7.8,0,0a.642.642,0,0,1,0,.9Zm0,0" transform="translate(-0.5 0.001)" fill="#088599"/>
</svg>
