<svg id="information" xmlns="http://www.w3.org/2000/svg" width="17.365" height="17.365" viewBox="0 0 17.365 17.365">
  <g id="Group_2902" data-name="Group 2902">
    <g id="Group_2901" data-name="Group 2901">
      <path id="Path_968" data-name="Path 968" d="M8.682,0a8.682,8.682,0,1,0,8.682,8.682A8.677,8.677,0,0,0,8.682,0Zm0,16.008a7.326,7.326,0,1,1,7.326-7.326A7.322,7.322,0,0,1,8.682,16.008Z" fill="#fff"/>
    </g>
  </g>
  <g id="Group_2904" data-name="Group 2904" transform="translate(8.004 7.269)">
    <g id="Group_2903" data-name="Group 2903">
      <path id="Path_969" data-name="Path 969" d="M236.678,214.33a.678.678,0,0,0-.678.678v4.368a.678.678,0,1,0,1.357,0v-4.368A.678.678,0,0,0,236.678,214.33Z" transform="translate(-236 -214.33)" fill="#fff"/>
    </g>
  </g>
  <g id="Group_2906" data-name="Group 2906" transform="translate(7.767 4.607)">
    <g id="Group_2905" data-name="Group 2905">
      <circle id="Ellipse_105" data-name="Ellipse 105" cx="0.916" cy="0.916" r="0.916" fill="#fff"/>
    </g>
  </g>
</svg>
