<svg xmlns="http://www.w3.org/2000/svg" width="87.484" height="30.245" viewBox="0 0 87.484 30.245">
  <g id="dey" transform="translate(-13.98 -323.89)">
    <path id="Path_4943" data-name="Path 4943" d="M14.971,323.89H50.515a1.5,1.5,0,0,1,1.08,1.543c.022,4.422,0,8.844.012,13.269a2.061,2.061,0,0,1-.423,1.566,1.822,1.822,0,0,1-1.413.463q-17.046-.006-34.091-.006a1.588,1.588,0,0,1-1.7-1.094V324.871a1.74,1.74,0,0,1,.987-.981m2.623,5.482a5.616,5.616,0,0,0,2.371,7.969,6.119,6.119,0,0,0,4.683.154,11.225,11.225,0,0,0,4.872-4.11,12.114,12.114,0,0,1,3.039-3.413c1.234-.741,2.731-.369,4.093-.463.572-.582,1.154-1.156,1.733-1.734.418-.258.369-1.023-.17-1.08-1.234-.043-2.469,0-3.7-.019a6.457,6.457,0,0,0-4.181,1.352c-2.108,1.632-3.086,4.289-5.172,5.937a4.022,4.022,0,0,1-3.462,1.007,2.776,2.776,0,0,1-.441-5.23c1.068-.463,2.27-.094,3.373-.27.594-.552,1.156-1.139,1.73-1.711a.6.6,0,0,0,.154-.813c-.187-.353-.622-.251-.958-.264-1.234.02-2.486-.028-3.726.028a5.619,5.619,0,0,0-4.244,2.668m24.686-2.646c-.6.582-1.2,1.173-1.779,1.78a.583.583,0,0,0,.352.986c.873.062,1.748-.014,2.623.029a2.78,2.78,0,0,1-.184,5.539c-1.637.051-3.277,0-4.914.026-.6.617-1.234,1.21-1.825,1.831a.566.566,0,0,0,.43.957c2.006.014,4,0,6,.008a5.722,5.722,0,0,0,2.182-.369,5.626,5.626,0,0,0,.586-10.22,5.824,5.824,0,0,0-3.467-.579m12.07,5.065a5.625,5.625,0,0,1,5.306-5.122c2.216-.026,4.433-.014,6.648-.011a.573.573,0,0,1,.683.617c.011,2.592,0,5.184,0,7.775a4.365,4.365,0,0,0,2.558-.957c1.955-1.467,2.964-3.8,4.72-5.459a6.989,6.989,0,0,1,3.732-1.9A5.8,5.8,0,0,1,82.7,328a5.641,5.641,0,0,1,1.788,2.842,6.1,6.1,0,0,1-.52,4.232c1.253-.029,2.51.054,3.762-.046a2.782,2.782,0,0,0,2.479-2.638c.031-1.234,0-2.482.008-3.723a18.887,18.887,0,0,1,2.3-2.091c.2.154.549.262.525.579.04,1.8,0,3.6.014,5.4a5.794,5.794,0,0,1-.685,2.527h2.913a3.8,3.8,0,0,0,1.777-.309,2.777,2.777,0,0,0,1.56-2.376c.029-1.234,0-2.469.014-3.7.667-.634,1.271-1.335,1.97-1.935.3-.253.606,0,.855.188v6a5.667,5.667,0,0,1-2.143,3.78,5.769,5.769,0,0,1-3.72,1.176c-.656-.017-1.315.04-1.967-.029-.728-.525-1.248-1.291-1.967-1.833a6.209,6.209,0,0,1-1.933,1.389,9.873,9.873,0,0,1-4.32.472c-.282.023-.463-.211-.654-.381-.489-.5-.98-1-1.48-1.481a6.125,6.125,0,0,1-2.953,1.71,13.422,13.422,0,0,1-2.931.154c-.714-.015-1.43.039-2.143-.026a.577.577,0,0,1-.285-.981c.579-.617,1.162-1.227,1.794-1.78.926-.154,1.881.054,2.808-.136a2.761,2.761,0,0,0,2.112-3.512,2.836,2.836,0,0,0-2.091-1.9,3.657,3.657,0,0,0-3.044.89,23.473,23.473,0,0,0-2.84,3.471,10.167,10.167,0,0,1-4.8,3.686,14.518,14.518,0,0,1-3.7.329c-.38.017-.972-.023-1.035-.5-.094-2.638.059-5.284-.071-7.923-1.43.011-2.86-.009-4.291,0a2.749,2.749,0,0,0-1.294,5.1c1.186.742,2.646.295,3.951.478a.6.6,0,0,1,.131.98c-.589.591-1.159,1.208-1.785,1.76a5.628,5.628,0,0,1-6.463-6.054m30.857,9.288c.029-.33.393-.463.685-.424a5.76,5.76,0,0,1,2.06.162,7.32,7.32,0,0,1,.091,2.061.591.591,0,0,1-.606.617c-.571,0-1.142.022-1.711-.012-.248-.019-.545-.194-.526-.474-.017-.645-.029-1.293,0-1.936m3.316,1c.046-.491-.125-1.134.384-1.435.711.012,1.424.014,2.135,0,.154.154.364.287.363.529.028.609.031,1.222,0,1.831-.054.514-.656.515-1.045.5a4.7,4.7,0,0,1-1.592-.123c-.366-.326-.258-.867-.247-1.3m-74.53,1.054c3.137.069,6.276.014,9.411.032q13.34-.011,26.681,0c2.523-.045,5.047.08,7.569-.008q11.416,0,22.834,0a10.989,10.989,0,0,1,2.066.1.679.679,0,0,1-.5.242q-34.029.028-68.059,0v-.372m3.459,3.712c.355-.355.66-.816,1.179-.938.085,2.347.012,4.7.039,7.046-.994.048-1.989.023-2.982.029a1.76,1.76,0,0,1-1.7-1.375v-1.9a1.748,1.748,0,0,1,1.543-1.4c.642-.032,1.285.009,1.927-.032v-1.424m-1,2.677c-.42.04-1.163-.176-1.234.435a4.322,4.322,0,0,0,.083,1.62c.617.414,1.444.106,2.146.187,0-.913.011-1.827-.011-2.74-.285.245-.565.589-.989.5m5.332-1.21c-.06-.545.517-.808.824-1.166.725.011,1.452-.029,2.177.014a1.75,1.75,0,0,1,1.478,1.717c0,1.361.019,2.723-.017,4.084-1,.051-2.006.015-3.016.023a1.717,1.717,0,0,1-1.6-1.182,1.77,1.77,0,0,1,1.308-2.3c.7-.085,1.415-.017,2.123-.04a1.376,1.376,0,0,0-.267-1.041c-.994-.154-2.006.023-3.012-.106m2.387,2.361c-.441.046-1.029-.154-1.33.276a.593.593,0,0,0,.319.8c.631.063,1.267,0,1.9.023v-1.651c-.272.239-.484.639-.889.555m4.966-2.715c.361-.282.64-.915,1.166-.795.21,1.08-.143,2.236.191,3.271a5.663,5.663,0,0,0,2.12.154v-2.6a5.835,5.835,0,0,1,.974-.887c.309.086.318.447.324.707-.085,1.6.043,3.208-.076,4.809a1.853,1.853,0,0,1-1.319,1.523H29.247a3.233,3.233,0,0,1,.957-1.211c.663-.019,1.331.045,1.992-.031.491-.082.389-.69.429-1.051-.617-.011-1.227.02-1.839-.009a1.757,1.757,0,0,1-1.66-1.713c-.019-.721.009-1.441,0-2.16m13.448-.756a3.459,3.459,0,0,1,1.157-.039c.1,1.293.028,2.594.049,3.89a8.183,8.183,0,0,1-.094,1.935H42.6a16.262,16.262,0,0,1-.093-2.7,28.987,28.987,0,0,1,.066-3.086m4.036,1.068c-.032-.521.542-.771.827-1.129.784.009,1.568-.015,2.351.011a1.727,1.727,0,0,1,1.543,1.74v3.549c-.023.191.06.551-.242.538s-.713.117-.963-.1c-.073-1.331.009-2.668-.034-4,.012-.228-.2-.364-.321-.521-.65.012-1.3,0-1.947,0-.017,1.532,0,3.064-.009,4.6a7.414,7.414,0,0,1-1.185.014c-.059-1.564,0-3.13-.028-4.695m7.528-.256a1.7,1.7,0,0,1,1.51-.875c.819.017,1.64-.026,2.458.028.2.542-.5.812-.771,1.183-.708.1-1.543-.231-2.151.248.032.276-.069.67.267.8.68.194,1.435-.083,2.109.193a1.805,1.805,0,0,1,1.071,1.62,1.759,1.759,0,0,1-1.756,1.779c-.886-.022-1.776.037-2.66-.031l-.083-.194c.165-.412.58-.67.875-.991a15.417,15.417,0,0,0,2.086-.049.551.551,0,0,0-.043-1.008c-.762-.14-1.62.154-2.314-.309a1.771,1.771,0,0,1-.6-2.391m7.085-.032c.309-.287.7-1.034,1.153-.753.1,1.322-.009,2.654.049,3.979a.576.576,0,0,0,.384.542c.626.052,1.257.008,1.887.019,0-1.264-.009-2.526,0-3.789a9.539,9.539,0,0,1,.984-.916c.309.205.205.592.227.9-.035,1.657.051,3.32-.043,4.974-.986.1-1.986.022-2.978.042a1.672,1.672,0,0,1-1.529-1.006,4.5,4.5,0,0,1-.177-1.851c.026-.714-.057-1.438.039-2.148m7.568.73a1.7,1.7,0,0,1,1.674-1.566c.617-.012,1.234,0,1.851.008.076.555-.5.812-.793,1.188-.475.088-1.17-.194-1.458.322-.154,1.432.1,2.9-.13,4.32a4.205,4.205,0,0,1-1.14-.071c.014-1.4-.043-2.8.008-4.2m5.519-.736a9.377,9.377,0,0,1,.8-.827c.714,0,1.43-.022,2.145.008a1.744,1.744,0,0,1,1.507,1.723c.025,1.139,0,2.277.012,3.416a1.511,1.511,0,0,1-.091.66c-1,.073-2,.017-2.993.028a1.76,1.76,0,0,1,.025-3.516c.617-.014,1.227,0,1.839,0a6.337,6.337,0,0,0-.094-.936,1.388,1.388,0,0,0-.671-.173h-2.4c-.049-.119-.208-.255-.079-.384m2.671,2.7a6.22,6.22,0,0,0-1.419.074.549.549,0,0,0,.057,1c.636.071,1.279.009,1.918.034.008-.566,0-1.131,0-1.7-.184.2-.367.393-.549.591m4.6-2.686c.284-.287.572-.572.866-.85.731.014,1.463,0,2.194,0a1.7,1.7,0,0,1,1.626,1.313,17.924,17.924,0,0,1,.051,3.073,4.271,4.271,0,0,1-.1,1.443,8.581,8.581,0,0,1-1.035.026,20.936,20.936,0,0,1-.1-3.175c-.057-.472.185-1.114-.3-1.423-.645-.076-1.3-.012-1.942-.034-.019,1.311-.009,2.623,0,3.934a2.58,2.58,0,0,1-.093.7l-1.109-.014c-.137-1.657-.028-3.326-.062-4.988m7.714.295a1.753,1.753,0,0,1,1.689-1.143c.975.012,1.95-.015,2.931.022.029.549-.562.8-.853,1.186-.741.031-1.484-.029-2.223.028a.6.6,0,0,0-.42.68c0,.717-.012,1.435,0,2.16a.523.523,0,0,0,.413.542c.984.071,1.975-.026,2.961.039.35.463-.454.835-.7,1.193-.756,0-1.514.015-2.27,0a1.7,1.7,0,0,1-1.564-1.277,12.936,12.936,0,0,1-.057-1.879,5.51,5.51,0,0,1,.1-1.543m7.492.6a1.7,1.7,0,0,1,1.581-1.747,12.442,12.442,0,0,1,1.713.022,1.8,1.8,0,0,1,1.373,1.3v.938a1.967,1.967,0,0,1-1.389,1.234c-.694.074-1.389.014-2.091.039.015.376-.062.98.434,1.072.926.059,1.851-.008,2.777.025l.111.349q-.426.426-.85.855c-.691,0-1.381.023-2.071,0a1.672,1.672,0,0,1-1.591-1.614c-.017-.825,0-1.651,0-2.478M98.012,350c.179-.182.361-.363.542-.545.537-.076,1.3.231,1.648-.309.219-.3-.068-.577-.256-.792-.511.014-1.023-.028-1.532.015-.65.275-.335,1.1-.4,1.635Z" transform="translate(0 0)" fill="#fff"/>
    <path id="Path_4944" data-name="Path 4944" d="M530.268,432.584c.665-.054,1.335-.025,2.006-.02a.569.569,0,0,1,.534.639,5.148,5.148,0,0,1-.173,2.092,8.753,8.753,0,0,1-2.078.086.539.539,0,0,1-.585-.455,15.149,15.149,0,0,1,0-1.873.568.568,0,0,1,.309-.463Z" transform="translate(-436.356 -91.897)" fill="#c40753"/>
  </g>
</svg>
