<svg xmlns="http://www.w3.org/2000/svg" width="17" height="12" viewBox="0 0 17 12">
  <g id="menu" transform="translate(0 -76)">
    <g id="Group_5766" data-name="Group 5766" transform="translate(0 81.314)">
      <g id="Group_5765" data-name="Group 5765" transform="translate(0 0)">
        <path id="Path_2110" data-name="Path 2110" d="M16.336,236H.664a.686.686,0,0,0,0,1.372H16.336a.686.686,0,0,0,0-1.372Z" transform="translate(0 -236)" fill="#fff"/>
      </g>
    </g>
    <g id="Group_5768" data-name="Group 5768" transform="translate(0 76)">
      <g id="Group_5767" data-name="Group 5767" transform="translate(0 0)">
        <path id="Path_2111" data-name="Path 2111" d="M16.336,76H.664a.686.686,0,0,0,0,1.372H16.336a.686.686,0,0,0,0-1.372Z" transform="translate(0 -76)" fill="#fff"/>
      </g>
    </g>
    <g id="Group_5770" data-name="Group 5770" transform="translate(0 86.628)">
      <g id="Group_5769" data-name="Group 5769">
        <path id="Path_2112" data-name="Path 2112" d="M16.336,396H.664a.686.686,0,0,0,0,1.372H16.336a.686.686,0,0,0,0-1.372Z" transform="translate(0 -396)" fill="#fff"/>
      </g>
    </g>
  </g>
</svg>
