<svg xmlns="http://www.w3.org/2000/svg" width="30.91" height="23.545" viewBox="0 0 30.91 23.545">
    <g id="megaphone" transform="translate(0 -61)">
        <g id="Group_2948" transform="translate(26.382 71.867)">
            <g id="Group_2947">
                <path id="Path_998" d="M440.622,241h-2.717a.906.906,0,0,0,0,1.811h2.717a.906.906,0,0,0,0-1.811Z"
                    transform="translate(-437 -241)" fill="#ef4c5b" />
            </g>
        </g>
        <g id="Group_2950" transform="translate(25.477 75.489)">
            <g id="Group_2949">
                <path id="Path_999" d="M425.357,303.078l-1.811-1.811a.906.906,0,0,0-1.281,1.281l1.811,1.811a.906.906,0,0,0,1.281-1.281Z"
                    transform="translate(-422 -301.001)" fill="#ef4c5b" />
            </g>
        </g>
        <g id="Group_2952" transform="translate(25.477 66.433)">
            <g id="Group_2951">
                <path id="Path_1000" d="M425.357,151.266a.906.906,0,0,0-1.281,0l-1.811,1.811a.906.906,0,1,0,1.281,1.281l1.811-1.811A.905.905,0,0,0,425.357,151.266Z"
                    transform="translate(-422 -151.001)" fill="#ef4c5b" />
            </g>
        </g>
        <g id="Group_2954" transform="translate(0 61)">
            <g id="Group_2953">
                <path id="Path_1001" d="M20.949,61a2.721,2.721,0,0,0-2.686,2.311l-.826.826a8.154,8.154,0,0,1-5.664,2.3H6.339a2.721,2.721,0,0,0-2.561,1.811H3.622a3.622,3.622,0,1,0,0,7.245h.156a2.73,2.73,0,0,0,1.655,1.655v4.684a2.717,2.717,0,0,0,5.433,0V77.3h.906a8.154,8.154,0,0,1,5.664,2.3l.826.826a2.717,2.717,0,0,0,5.4-.405v-16.3A2.72,2.72,0,0,0,20.949,61ZM3.622,73.678a1.811,1.811,0,0,1,0-3.622Zm5.433,8.15a.906.906,0,0,1-1.811,0V77.3H9.056Zm1.811-6.339H6.339a.907.907,0,0,1-.906-.906V69.15a.907.907,0,0,1,.906-.906h4.528Zm7.365,2.375a9.9,9.9,0,0,0-5.56-2.334V68.2a9.9,9.9,0,0,0,5.56-2.334Zm3.622,2.152a.907.907,0,0,1-.906.906h0a.907.907,0,0,1-.906-.906v-16.3a.906.906,0,1,1,1.811,0Z"
                    transform="translate(0 -61)" fill="#ef4c5b" />
            </g>
        </g>
    </g>
</svg>
