<svg xmlns="http://www.w3.org/2000/svg" width="17.439" height="17.464" viewBox="0 0 17.439 17.464">
  <g id="phone-call" transform="translate(-0.344 0)">
    <g id="Group_2933" data-name="Group 2933" transform="translate(0.344 0)">
      <path id="Path_989" data-name="Path 989" d="M14.134,37.214a1.718,1.718,0,0,0-1.246-.571,1.776,1.776,0,0,0-1.261.568l-1.165,1.161c-.1-.052-.192-.1-.284-.147-.133-.066-.258-.129-.365-.2a12.659,12.659,0,0,1-3.034-2.764,7.468,7.468,0,0,1-1-1.57c.3-.276.582-.564.855-.84.1-.1.206-.21.31-.313a1.691,1.691,0,0,0,0-2.551L5.944,28.984c-.114-.114-.232-.232-.343-.35-.221-.229-.453-.464-.693-.686a1.745,1.745,0,0,0-1.235-.542,1.806,1.806,0,0,0-1.253.542l-.007.007L1.159,29.219a2.7,2.7,0,0,0-.8,1.714,6.461,6.461,0,0,0,.472,2.735,15.871,15.871,0,0,0,2.82,4.7,17.346,17.346,0,0,0,5.776,4.523,9,9,0,0,0,3.244.958c.077,0,.158.007.232.007a2.777,2.777,0,0,0,2.127-.914c0-.007.011-.011.015-.018a8.38,8.38,0,0,1,.645-.667c.158-.151.321-.31.479-.475a1.839,1.839,0,0,0,.557-1.275,1.771,1.771,0,0,0-.568-1.264Zm1.32,3.881s0,0,0,0c-.144.155-.291.295-.45.45a9.691,9.691,0,0,0-.711.737,1.777,1.777,0,0,1-1.386.586c-.055,0-.114,0-.17,0A8,8,0,0,1,9.862,42a16.373,16.373,0,0,1-5.44-4.261,14.964,14.964,0,0,1-2.654-4.419,5.263,5.263,0,0,1-.413-2.307,1.692,1.692,0,0,1,.509-1.095L3.12,28.663a.838.838,0,0,1,.56-.262.788.788,0,0,1,.538.258l.011.011c.225.21.439.428.663.66.114.118.232.236.35.358L6.25,30.694a.7.7,0,0,1,0,1.143c-.107.107-.21.214-.317.317-.31.317-.6.612-.925.9-.007.007-.015.011-.018.018a.752.752,0,0,0-.192.837l.011.033A8.079,8.079,0,0,0,6,35.884l0,0a13.529,13.529,0,0,0,3.273,2.978,5.033,5.033,0,0,0,.453.247c.133.066.258.129.365.2.015.007.029.018.044.026a.8.8,0,0,0,.365.092.788.788,0,0,0,.56-.254l1.261-1.261a.834.834,0,0,1,.557-.276.751.751,0,0,1,.531.269l.007.007,2.031,2.031A.729.729,0,0,1,15.454,41.1Z" transform="translate(-0.344 -26.396)" fill="#fff"/>
      <path id="Path_990" data-name="Path 990" d="M245.353,86.912a4.744,4.744,0,0,1,3.863,3.863.5.5,0,0,0,.49.413.656.656,0,0,0,.085-.007.5.5,0,0,0,.409-.575,5.736,5.736,0,0,0-4.674-4.674.5.5,0,0,0-.575.405A.492.492,0,0,0,245.353,86.912Z" transform="translate(-235.928 -82.758)" fill="#fff"/>
      <path id="Path_991" data-name="Path 991" d="M257.05,7.7a9.445,9.445,0,0,0-7.7-7.7.5.5,0,1,0-.162.98,8.436,8.436,0,0,1,6.878,6.878.5.5,0,0,0,.49.413.659.659,0,0,0,.085-.007A.488.488,0,0,0,257.05,7.7Z" transform="translate(-239.618 0)" fill="#fff"/>
    </g>
  </g>
</svg>
