<svg xmlns="http://www.w3.org/2000/svg" width="28.985" height="28.926" viewBox="0 0 28.985 28.926">
  <g id="magnifying-glass" transform="translate(0.538 0.531)">
    <path id="Path_1002" data-name="Path 1002" d="M19.217,28.429a9.21,9.21,0,1,1,8.515-5.685A9.212,9.212,0,0,1,19.217,28.429Zm0-18a8.784,8.784,0,1,0,6.213,2.573,8.784,8.784,0,0,0-6.213-2.573Z" transform="translate(-10.005 -10.004)" fill="#ef4c5b" stroke="#ef4c5b" stroke-width="1.05"/>
    <path id="Path_1003" data-name="Path 1003" d="M27.989,34.8a6.822,6.822,0,1,1,4.826-2A6.822,6.822,0,0,1,27.989,34.8Zm0-13.216a6.394,6.394,0,1,0,4.524,1.871A6.394,6.394,0,0,0,27.989,21.588Z" transform="translate(-18.777 -18.767)" fill="#ef4c5b" stroke="#ef4c5b" stroke-width="1.05"/>
    <path id="Path_1004" data-name="Path 1004" d="M76.233,90.12a.214.214,0,0,1-.152-.063l-1.969-1.969a.214.214,0,1,1,.3-.3l1.969,1.969a.214.214,0,0,1-.152.366Z" transform="translate(-60.319 -71.06)" fill="#ef4c5b" stroke="#ef4c5b" stroke-width="1.05"/>
    <path id="Path_1005" data-name="Path 1005" d="M89.915,76.478a.214.214,0,0,1-.152-.063l-1.972-1.972a.214.214,0,0,1,.3-.3l1.972,1.972a.214.214,0,0,1-.152.366Z" transform="translate(-71.071 -60.347)" fill="#ef4c5b" stroke="#ef4c5b" stroke-width="1.05"/>
    <path id="Path_1006" data-name="Path 1006" d="M92.013,95.387a3.35,3.35,0,0,1-2.377-.983l-5.452-5.453A3.362,3.362,0,1,1,88.938,84.2l5.452,5.452a3.36,3.36,0,0,1-2.378,5.739ZM86.561,83.641a2.933,2.933,0,0,0-2.074,5.007L89.939,94.1a2.933,2.933,0,1,0,4.148-4.148L88.635,84.5a2.914,2.914,0,0,0-2.074-.859Z" transform="translate(-67.507 -67.517)" fill="#ef4c5b" stroke="#ef4c5b" stroke-width="1.05"/>
    <path id="Path_1007" data-name="Path 1007" d="M38.827,47.374a.214.214,0,0,1-.152-.063l-2-2a.214.214,0,1,1,.3-.3l1.847,1.847,4.816-4.816a.214.214,0,1,1,.3.3l-4.968,4.968A.213.213,0,0,1,38.827,47.374Z" transform="translate(-30.909 -35.122)" fill="#ef4c5b" stroke="#ef4c5b" stroke-width="1.05"/>
  </g>
</svg>
