<svg xmlns="http://www.w3.org/2000/svg" width="17.529" height="18.086" viewBox="0 0 17.529 18.086">
  <g id="Group_9926" data-name="Group 9926" transform="translate(23708.791 1135.812)">
    <g id="file" transform="translate(-23708.791 -1135.812)">
      <path id="Path_11" data-name="Path 11" d="M74.82,68.046h5.334a.265.265,0,1,0,0-.53H74.82a.265.265,0,1,0,0,.53Z" transform="translate(-72.858 -65.131)" fill="#909090"/>
      <path id="Path_12" data-name="Path 12" d="M74.82,117.383h5.334a.265.265,0,1,0,0-.53H74.82a.265.265,0,1,0,0,.53Z" transform="translate(-72.858 -112.725)" fill="#909090"/>
      <path id="Path_13" data-name="Path 13" d="M85.5,214.768a.265.265,0,0,0-.265-.265H74.82a.265.265,0,1,0,0,.53H85.237A.265.265,0,0,0,85.5,214.768Z" transform="translate(-72.858 -206.926)" fill="#909090"/>
      <path id="Path_14" data-name="Path 14" d="M81.914,282.4a.249.249,0,0,0-.229-.265h-6.9a.268.268,0,0,0,0,.53h6.9A.249.249,0,0,0,81.914,282.4Z" transform="translate(-72.858 -272.168)" fill="#909090"/>
      <path id="Path_15" data-name="Path 15" d="M74.82,349.766a.265.265,0,0,0,0,.53h4.443a.265.265,0,0,0,0-.53Z" transform="translate(-72.858 -337.411)" fill="#909090"/>
      <path id="Path_16" data-name="Path 16" d="M32.97,17.556H27.718a.671.671,0,0,1-.67-.67V1.2a.671.671,0,0,1,.67-.67H36.2V3.682a.973.973,0,0,0,.972.972h3.153v5.579a.265.265,0,1,0,.53,0V4.389a.265.265,0,0,0-.078-.187L36.657.078A.265.265,0,0,0,36.47,0H27.718a1.2,1.2,0,0,0-1.2,1.2V16.886a1.2,1.2,0,0,0,1.2,1.2H39.659a1.2,1.2,0,0,0,1.2-1.2v-.547a.265.265,0,1,0-.53,0v.547a.671.671,0,0,1-.67.67H32.97C33.507,16.94,32.971,17.547,32.97,17.556ZM36.735,3.682V.9l3.22,3.22H37.176A.442.442,0,0,1,36.735,3.682Z" transform="translate(-26.518 0)" fill="#909090"/>
    </g>
    <g id="magnifying-glass" transform="translate(-23699.762 -1126.443)">
      <path id="Path_1002" data-name="Path 1002" d="M12.76,15.513a2.754,2.754,0,1,1,2.546-1.7A2.755,2.755,0,0,1,12.76,15.513Zm0-5.381a2.627,2.627,0,1,0,1.858.769,2.627,2.627,0,0,0-1.858-.769Z" transform="translate(-10.005 -10.004)" fill="#909090" stroke="#909090" stroke-width="0.3"/>
      <path id="Path_1004" data-name="Path 1004" d="M74.7,88.439a.064.064,0,0,1-.045-.019l-.589-.589a.064.064,0,1,1,.091-.091l.589.589a.064.064,0,0,1-.045.109Z" transform="translate(-69.943 -82.74)" fill="#909090" stroke="#909090" stroke-width="0.3"/>
      <path id="Path_1005" data-name="Path 1005" d="M88.388,74.8a.064.064,0,0,1-.045-.019l-.59-.59a.064.064,0,0,1,.09-.091l.59.59a.064.064,0,0,1-.045.109Z" transform="translate(-82.753 -69.977)" fill="#909090" stroke="#909090" stroke-width="0.3"/>
      <path id="Path_1006" data-name="Path 1006" d="M85.835,86.853a1,1,0,0,1-.711-.294l-1.63-1.631a1.005,1.005,0,1,1,1.422-1.422l1.63,1.63a1,1,0,0,1-.711,1.716ZM84.2,83.34a.877.877,0,0,0-.62,1.5l1.63,1.631a.877.877,0,1,0,1.24-1.24l-1.63-1.63A.871.871,0,0,0,84.2,83.34Z" transform="translate(-78.507 -78.519)" fill="#909090" stroke="#909090" stroke-width="0.3"/>
      <path id="Path_1007" data-name="Path 1007" d="M37.276,43.591a.064.064,0,0,1-.045-.019l-.6-.6a.064.064,0,1,1,.091-.091l.552.552L38.716,42a.064.064,0,1,1,.091.091l-1.486,1.485A.064.064,0,0,1,37.276,43.591Z" transform="translate(-34.908 -39.927)" fill="#909090" stroke="#909090" stroke-width="0.3"/>
    </g>
  </g>
</svg>
